OpenSim_Sub09_CSStiffKnee_LCS.mot
version=1
nRows=64
nColumns=11
inDegrees=no
endheader
time	Bot_Shank	2nd_Bot_Shank	2nd_Top_Shank	Top_Shank	Bot_Thigh	Med_Thigh	Top_Thigh	BNOx	BNOy	BNOZ
53.45000000	10624.75934534	10521.48086700	11231.36159409	10570.12532489	13636.71136984	14553.77349543	15315.35713016	176.48172598	-66.58020217	-84.40736824
53.46000000	10626.20440506	10516.90398192	11231.07617222	10580.85789657	13665.08326717	14553.96497661	15306.32683325	175.53587792	-65.28165883	-83.97332477
53.47000000	10624.28736765	10514.79359085	11230.84293390	10596.43868732	13690.23535578	14554.06399325	15299.51189231	174.57725274	-63.92378270	-84.02977207
53.48000000	10619.17074980	10514.92922546	11230.67070412	10616.52939833	13711.58441673	14554.11004566	15294.97429695	173.61781206	-62.53380219	-84.49180276
53.49000000	10611.49407600	10516.67363231	11230.56222331	10640.06019199	13728.67066254	14554.09331547	15291.88369781	172.68686853	-61.15250558	-85.22466587
53.50000000	10601.90303598	10519.38417108	11230.52015327	10665.95177567	13741.03590102	14554.00334686	15289.39821217	171.81395907	-59.82085643	-86.09296621
53.51000000	10591.04331947	10522.41820147	11230.54715581	10693.12485673	13748.22194000	14553.82968402	15286.67595730	171.02862056	-58.57981826	-86.96130861
53.52000000	10579.56061621	10525.13308316	11230.64589272	10720.50014253	13749.77058732	14553.56187114	15282.87505050	170.36038993	-57.47035462	-87.69429789
53.53000000	10568.10061595	10526.88617584	11230.81902579	10746.99834046	13745.22365078	14553.18945242	15277.15360905	169.83880408	-56.53342905	-88.15653885
53.54000000	10557.30900841	10527.03483920	11231.06921683	10771.54015786	13734.12293824	14552.70197204	15268.66975022	169.49339990	-55.81000510	-88.21263631
53.55000000	10547.83148332	10524.93643292	11231.39912763	10793.04630211	13716.01025749	14552.08897419	15256.58159131	169.35371432	-55.34104629	-87.72719510
53.56000000	10540.31373044	10519.94831670	11231.81141998	10810.43748058	13690.42741639	14551.34000307	15240.04724960	169.44928423	-55.16751618	-86.56482003
53.57000000	10535.34837962	10511.48135850	11232.30535355	10822.69049896	13657.00688117	14550.41591167	15218.29552778	169.80708098	-55.32709372	-84.61225320
53.58000000	10532.73412791	10499.74706866	11232.82928196	10829.62156016	13616.73763667	14548.84824782	15191.61289174	170.41568751	-55.80831081	-82.08747612
53.59000000	10531.65850130	10485.57329359	11233.29237124	10831.69303673	13571.65291843	14545.83807936	15161.09999860	171.23413527	-56.56186583	-79.46345901
53.60000000	10531.29330433	10469.80373402	11233.60277940	10829.38392293	13523.81282373	14540.57797304	15127.87844929	172.22069555	-57.53748398	-77.21973134
53.61000000	10530.81034155	10453.28209068	11233.66866444	10823.17321306	13475.27744988	14532.26049561	15093.06984477	173.33363967	-58.68489043	-75.83582252
53.62000000	10529.38141750	10436.85206428	11233.39818436	10813.53990138	13428.10689415	14520.07821382	15057.79578596	174.53123890	-59.95381037	-75.79126200
53.63000000	10526.17833673	10421.35735557	11232.69949716	10800.96298216	13384.36125385	14503.22369442	15023.17787380	175.77176454	-61.29396896	-77.56557923
53.64000000	10520.37290378	10407.64166525	11231.48076085	10785.92144968	13346.10062626	14480.88950416	14990.33770925	177.01348788	-62.65509140	-81.63830363
53.65000000	10511.24152388	10396.49003967	11229.66528963	10768.90703135	13315.21661671	14452.43368775	14960.34662211	178.21904342	-63.99044673	-88.39413107
53.66000000	10499.14045945	10388.08199991	11227.33286453	10750.54290642	13291.86138455	14418.92262046	14933.75696257	179.39610955	-65.28988950	-97.23873205
53.67000000	10485.06303071	10382.23983962	11224.65557362	10731.52980373	13275.16090928	14382.43050099	14910.81491067	180.57893814	-66.56485771	-107.00020466
53.68000000	10470.01079178	10378.78123534	11221.80669802	10712.56945441	13264.22790719	14345.04455398	14891.76268923	181.80212454	-67.82706835	-116.49918192
53.69000000	10454.98529674	10377.52386362	11218.95951884	10694.36358960	13258.17509458	14308.85200408	14876.84252108	183.10026410	-69.08823840	-124.55629689
53.70000000	10440.98809970	10378.28540100	11216.28731721	10677.61394043	13256.11518774	14275.94007594	14866.29662906	184.50795215	-70.36008485	-129.99218260
53.71000000	10429.02075475	10380.88352403	11213.96337425	10663.02223806	13257.16090297	14248.39599419	14860.36723600	186.05978403	-71.65432468	-131.62747210
53.72000000	10420.08481600	10385.13590926	11212.16097108	10651.29021361	13260.42495656	14228.30698350	14859.29656473	187.79035509	-72.98267487	-128.28279843
53.73000000	10415.18183754	10390.86023322	11211.05338881	10643.11959822	13265.02006481	14217.76026850	14863.32683807	189.73426067	-74.35685239	-118.77879463
53.74000000	10415.31337348	10397.87417247	11210.81390856	10639.21212304	13270.05894401	14218.84307385	14872.70027888	191.92609611	-75.78857425	-101.93609374
53.75000000	10421.38134204	10405.98370500	11211.60122625	10640.19797671	13274.68785331	14233.45238012	14887.59259940	194.39642124	-77.28662415	-76.70656697
53.76000000	10432.79681361	10414.81976375	11213.35579991	10645.63686032	13278.55495253	14260.63855317	14907.18431682	197.11541280	-78.81589574	-44.00579740
53.77000000	10447.82320099	10423.87853165	11215.85008759	10654.26441151	13281.69476556	14297.26062917	14929.88984513	200.00676448	-80.30749595	-6.26103734
53.78000000	10464.69439521	10432.65272539	11218.85222581	10664.79507012	13284.15175495	14340.12127567	14954.10389153	202.99297426	-81.69166261	34.06157546
53.79000000	10481.64428731	10440.63506166	11222.13035110	10675.94327603	13285.97038321	14386.02316024	14978.22116319	205.99654013	-82.89863355	74.49590329
53.80000000	10496.90676834	10447.31825716	11225.45259997	10686.42346909	13287.19511290	14431.76895045	15000.63636728	208.93996008	-83.85864658	112.57580843
53.81000000	10508.71572934	10452.19502858	11228.58710896	10694.95008917	13287.87040653	14474.16131385	15019.74421100	211.74573210	-84.50193955	145.83515316
53.82000000	10515.30506134	10454.75809259	11231.30201457	10700.23757612	13288.04072665	14510.00291800	15033.93940150	214.33635417	-84.75875027	171.80779975
53.83000000	10515.09828042	10454.55932593	11233.38303877	10701.11971305	13287.75078975	14536.35908282	15041.77000269	216.64060893	-84.56799691	188.26147406
53.84000000	10508.47651844	10451.76135068	11234.79744891	10697.66233694	13287.04793413	14553.00664985	15043.36727413	218.65215938	-83.95821014	195.37821957
53.85000000	10496.97579553	10446.88709590	11235.61961437	10690.65813038	13285.98104481	14561.32211294	15039.79647589	220.40294440	-83.01078718	194.76439758
53.86000000	10482.14705857	10440.46414759	11235.92528881	10680.90917038	13284.59902682	14562.70264119	15032.13493984	221.92539764	-81.80780855	188.04477850
53.87000000	10465.54125445	10433.02009174	11235.79022587	10669.21753392	13282.95078517	14558.54540371	15021.45999787	223.25195270	-80.43135478	176.84413272
53.88000000	10448.70933007	10425.08251433	11235.29017922	10656.38529797	13281.08522486	14550.24756959	15008.84898185	224.41504320	-78.96350637	162.78723066
53.89000000	10433.20223229	10417.17900135	11234.50090251	10643.21453953	13279.05125093	14539.20630795	14995.37922365	225.44710276	-77.48634385	147.49884269
53.90000000	10420.57090802	10409.83713880	11233.49814939	10630.50733558	13276.89776839	14526.81878787	14982.12805516	226.38056500	-76.08194775	132.60373923
53.91000000	10412.36630413	10403.58451264	11232.35767352	10619.06576310	13274.67368224	14514.48217846	14970.17280825	227.24786354	-74.83239857	119.72669068
53.92000000	10409.98888125	10398.91411616	11231.15280720	10609.64886961	13272.43729706	14503.51179014	14960.51865278	228.07849732	-73.81353724	110.36570380
53.93000000	10413.28553768	10395.96182066	11229.93188552	10602.57148294	13270.34395462	14494.37785570	14953.42578575	228.87166888	-73.03678959	104.71012627
53.94000000	10421.18665335	10394.65281466	11228.72849657	10597.88636514	13268.60624346	14487.05205750	14948.71491011	229.60870752	-72.47557994	102.17726718
53.95000000	10432.61076231	10394.90956365	11227.57603782	10595.64289111	13267.43749202	14481.49963422	14946.20104843	230.27071151	-72.10284149	102.17445712
53.96000000	10446.47639860	10396.65453310	11226.50790676	10595.89043574	13267.05102876	14477.68582452	14945.69922330	230.83877912	-71.89150742	104.10902669
53.97000000	10461.70209630	10399.81018849	11225.55750088	10598.67837392	13267.66018212	14475.57586708	14947.02445727	231.29400863	-71.81451091	107.38830647
53.98000000	10477.20638945	10404.29899530	11224.75821766	10604.05608055	13269.47828055	14475.13500056	14949.99177292	231.61749832	-71.84478513	111.41962706
53.99000000	10491.90781211	10410.04341900	11224.14345457	10612.07293051	13272.71865248	14476.32846363	14954.41619283	231.79034647	-71.95526328	115.61031905
54.00000000	10504.79770129	10416.95940094	11223.74397741	10622.74937423	13277.55281892	14479.10535494	14960.10455058	231.79581312	-72.12007646	119.40481842
54.01000000	10515.61898370	10424.89552969	11223.56338328	10635.80725688	13283.72069674	14483.24814976	14966.77913998	231.63947570	-72.32572276	122.63062271
54.02000000	10524.55798364	10433.66065930	11223.58924121	10650.79226259	13290.70757959	14488.44102451	14974.11238086	231.34007768	-72.56599611	125.34121525
54.03000000	10531.80675628	10443.06313026	11223.80891310	10667.24779863	13297.99547013	14494.36688511	14981.77604846	230.91653269	-72.83478474	127.59300022
54.04000000	10537.55735676	10452.91128308	11224.20976081	10684.71727227	13305.06637102	14500.70863747	14989.44191800	230.38775436	-73.12597688	129.44238178
54.05000000	10542.00184022	10463.01345826	11224.77914624	10702.74409078	13311.40228492	14507.14918752	14996.78176472	229.77265633	-73.43346075	130.94576410
54.06000000	10545.33226183	10473.17799627	11225.50443126	10720.87166144	13316.48521451	14513.37144118	15003.46736384	229.09015223	-73.75112460	132.15955134
54.07000000	10547.74067673	10483.21323763	11226.37297776	10738.64339150	13319.79716245	14519.05830435	15009.17049060	228.35915570	-74.07285664	133.14014766
54.08000000	10549.41914007	10492.92752283	11227.37214762	10755.60268825	13320.82013141	14523.89268298	15013.56292022	227.59858038	-74.39254510	133.94395724
